<svg width="362" height="351" viewBox="0 0 362 351" fill="none" xmlns="http://www.w3.org/2000/svg">
<path fill-rule="evenodd" clip-rule="evenodd" d="M289.077 0.23274C300.035 -0.987108 312.81 2.48946 320.906 13.003C330.617 25.6132 336.22 42.6606 339.721 59.9519C343.261 77.411 344.954 96.7761 345.778 115.463C350.316 118.086 354.121 121.79 356.848 126.24C359.575 130.689 361.137 135.743 361.392 140.942C361.746 147.118 362 154.635 362 163.624C362 172.613 361.746 180.13 361.384 186.305C361.021 193.665 358.045 200.662 352.981 206.059C353.853 212.972 354.292 220.006 354.297 227.163V227.338C354.297 237.859 354.297 269.537 330.641 298.432C306.469 327.953 260.734 351 177.145 351C93.5552 351 47.8357 327.953 23.6639 298.432C0 269.537 0 237.867 0 227.346V227.17C0 209.17 2.84736 191.871 7.98801 175.632C7.79261 172.975 7.69763 170.313 7.70327 167.649V163.517C7.70327 140.698 7.85719 112.71 10.6045 86.6132C13.4288 59.7156 19.2851 31.3236 33.3834 13.0106C41.5023 2.48183 54.2769 -0.979484 65.2277 0.23274C100.281 4.121 127.408 24.218 147.078 48.5768C156.965 46.4926 167.044 45.4297 177.152 45.4052C187.203 45.4052 197.276 46.5031 207.234 48.5768C226.904 24.218 254.031 4.12863 289.084 0.240363M38.9396 178.879C38.8252 180.003 38.5851 181.11 38.2239 182.181C33.3191 196.68 30.8139 211.87 30.8054 227.163C30.8054 236.479 30.9516 258.886 47.5818 279.204C63.8502 299.065 98.9882 320.481 177.152 320.481C255.301 320.481 290.447 299.057 306.715 279.204C323.345 258.886 323.491 236.472 323.491 227.163C323.491 223.605 323.358 220.077 323.091 216.58C314.857 216.847 304.776 217.038 292.678 217.038C276.933 217.038 264.589 216.718 255.316 216.321C238.609 215.605 224.965 203.337 223.972 186.305C223.839 184.018 223.723 181.543 223.626 178.879H200C199.898 181.543 199.78 184.018 199.646 186.305C198.661 203.337 185.009 215.605 168.302 216.321C159.029 216.718 146.678 217.038 130.94 217.038C115.203 217.038 102.844 216.718 93.5705 216.321C76.8634 215.605 63.2192 203.337 62.2265 186.305C62.0931 184.018 61.9776 181.543 61.8801 178.879H38.9396ZM38.5548 148.36C38.7011 129.377 39.2321 108.914 41.2483 89.7696C44.0495 63.1083 49.4518 42.4623 57.8861 31.5218C58.1632 31.2057 58.5226 30.971 58.925 30.8433C59.844 30.5292 60.8251 30.4351 61.7878 30.5688C88.9763 33.5803 111.24 50.7345 128.301 74.613C132.072 79.8736 138.767 82.2294 145.039 80.4835C155.484 77.5245 166.288 75.9932 177.152 75.9319C187.649 75.9319 198.454 77.4796 209.258 80.4835C212.318 81.3375 215.571 81.2317 218.568 80.1805C221.565 79.1293 224.16 77.1844 225.996 74.613C243.057 50.7345 265.32 33.5803 292.509 30.5688C293.472 30.4351 294.453 30.5292 295.372 30.8433C296.01 31.072 296.28 31.3465 296.418 31.5218C301.882 38.6198 306.346 50.2541 309.516 65.952C312.24 79.4161 313.803 94.6947 314.68 110.438C307.347 110.28 300.013 110.203 292.678 110.21C276.933 110.21 264.589 110.53 255.316 110.919C238.609 111.635 224.965 123.91 223.972 140.942C223.839 143.229 223.723 145.702 223.626 148.36H200C199.898 145.697 199.78 143.224 199.646 140.942C198.661 123.91 185.009 111.635 168.302 110.919C159.029 110.522 146.678 110.21 130.94 110.21C115.203 110.21 102.844 110.522 93.5705 110.919C76.8634 111.635 63.2192 123.91 62.2265 140.942C62.0931 143.229 61.9776 145.702 61.8801 148.36H38.5548ZM66.4128 247.648C64.9064 248.987 63.6812 250.607 62.8074 252.415C61.9335 254.223 61.4282 256.184 61.3203 258.186C61.2123 260.188 61.5039 262.192 62.1784 264.082C62.8528 265.972 63.8969 267.712 65.2508 269.202C80.1802 285.654 104.96 298.592 144.6 303.068C146.635 303.347 148.706 303.221 150.691 302.696C152.676 302.171 154.535 301.258 156.159 300.01C157.782 298.763 159.137 297.206 160.145 295.432C161.152 293.658 161.791 291.703 162.024 289.68C162.257 287.658 162.079 285.61 161.502 283.656C160.924 281.703 159.957 279.884 158.659 278.306C157.361 276.728 155.758 275.424 153.944 274.469C152.129 273.514 150.14 272.929 148.094 272.747C113.61 268.851 96.6872 258.2 88.1605 248.8C86.8095 247.308 85.175 246.095 83.3505 245.23C81.526 244.365 79.5473 243.865 77.5276 243.758C75.5078 243.651 73.4865 243.94 71.5794 244.607C69.6722 245.275 67.9166 246.308 66.4128 247.648Z" fill="white"/>
</svg>
